<svg id="svg" version="1.1" xmlns="http://www.w3.org/2000/svg" xmlns:xlink="http://www.w3.org/1999/xlink" width="400" height="396.6666666666667" viewBox="0, 0, 400,396.6666666666667"><g id="svgg"><path id="path0" d="M150.917 258.917 C 176.262 258.964,217.737 258.964,243.083 258.917 C 268.429 258.870,247.692 258.831,197.000 258.831 C 146.308 258.831,125.571 258.870,150.917 258.917 " stroke="none" fill="#e4542c" fill-rule="evenodd"></path><path id="path1" d="M313.669 40.561 C 313.670 40.711,314.120 41.089,314.669 41.401 C 315.953 42.132,315.952 41.915,314.667 41.000 C 314.117 40.608,313.668 40.411,313.669 40.561 M75.833 43.839 L 74.833 44.674 75.915 44.087 C 76.509 43.764,76.997 43.387,76.998 43.250 C 77.001 42.886,76.933 42.920,75.833 43.839 M344.333 68.764 C 344.608 69.002,345.039 69.415,345.291 69.682 C 345.682 70.097,345.696 70.064,345.383 69.456 C 345.183 69.065,344.752 68.652,344.426 68.538 C 343.910 68.358,343.898 68.388,344.333 68.764 M122.372 139.389 C 122.351 139.695,122.247 140.220,122.141 140.556 C 121.960 141.135,121.970 141.136,122.331 140.573 C 122.540 140.246,122.644 139.721,122.561 139.406 C 122.426 138.890,122.407 138.888,122.372 139.389 M86.667 234.241 C 86.667 234.434,86.976 234.947,87.353 235.380 L 88.040 236.167 87.454 235.167 C 86.683 233.851,86.667 233.831,86.667 234.241 M104.486 276.417 C 104.398 276.646,104.367 284.258,104.416 293.333 L 104.506 309.833 104.587 293.084 L 104.667 276.335 197.250 276.250 L 289.833 276.165 197.240 276.083 C 123.411 276.017,104.613 276.084,104.486 276.417 M355.932 316.002 C 355.201 317.286,355.418 317.285,356.333 316.000 C 356.725 315.450,356.923 315.001,356.773 315.002 C 356.623 315.003,356.244 315.453,355.932 316.002 M169.276 325.250 C 184.737 325.298,209.937 325.298,225.276 325.250 C 240.616 325.202,227.967 325.163,197.167 325.163 C 166.367 325.163,153.816 325.202,169.276 325.250 M345.167 329.588 C 344.983 329.723,344.613 330.133,344.343 330.500 C 343.982 330.992,344.091 330.955,344.760 330.359 C 345.576 329.631,345.824 329.324,345.583 329.338 C 345.537 329.341,345.350 329.454,345.167 329.588 M63.665 344.832 C 64.095 345.290,64.521 345.591,64.610 345.501 C 64.773 345.338,63.388 344.000,63.058 344.000 C 62.962 344.000,63.236 344.374,63.665 344.832 M314.308 357.917 L 313.500 358.833 314.500 358.000 C 315.050 357.542,315.563 357.129,315.639 357.083 C 315.715 357.037,315.629 357.000,315.447 357.000 C 315.265 357.000,314.753 357.412,314.308 357.917 M224.333 365.333 C 223.692 365.685,223.317 365.972,223.500 365.972 C 223.683 365.972,224.358 365.685,225.000 365.333 C 225.642 364.982,226.017 364.695,225.833 364.695 C 225.650 364.695,224.975 364.982,224.333 365.333 " stroke="none" fill="#e45424" fill-rule="evenodd"></path><path id="path2" d="M336.500 60.000 C 337.403 60.917,338.217 61.667,338.308 61.667 C 338.400 61.667,337.736 60.917,336.833 60.000 C 335.930 59.083,335.117 58.333,335.025 58.333 C 334.933 58.333,335.597 59.083,336.500 60.000 " stroke="none" fill="#ec542a" fill-rule="evenodd"></path><path id="path3" d="" stroke="none" fill="#e44c2c" fill-rule="evenodd"></path><path id="path4" d="M186.925 2.519 C 186.865 2.579,185.395 2.707,183.658 2.804 C 181.921 2.902,180.125 3.050,179.667 3.135 C 178.638 3.326,174.274 3.728,172.583 3.789 C 171.896 3.813,171.333 3.909,171.333 4.001 C 171.333 4.093,170.921 4.184,170.417 4.203 C 169.912 4.222,168.076 4.495,166.336 4.810 C 164.595 5.124,162.645 5.439,162.002 5.508 C 160.587 5.661,156.519 6.488,153.167 7.304 C 152.433 7.482,151.458 7.710,151.000 7.810 C 150.542 7.910,149.492 8.149,148.667 8.340 C 147.842 8.532,146.942 8.721,146.667 8.761 C 146.392 8.801,146.076 8.957,145.965 9.109 C 145.854 9.260,145.104 9.468,144.298 9.570 C 143.492 9.673,142.683 9.869,142.500 10.007 C 142.317 10.144,141.642 10.366,141.000 10.500 C 140.006 10.708,137.915 11.394,130.333 13.998 C 129.692 14.219,128.694 14.609,128.116 14.866 C 127.539 15.123,126.751 15.333,126.366 15.333 C 125.981 15.333,125.667 15.471,125.667 15.640 C 125.667 15.809,125.179 16.049,124.583 16.173 C 123.987 16.297,123.162 16.613,122.750 16.874 C 122.337 17.135,122.000 17.283,122.000 17.203 C 122.000 17.123,121.299 17.412,120.442 17.846 C 119.585 18.280,118.777 18.568,118.647 18.488 C 118.516 18.407,118.224 18.564,117.997 18.837 C 117.770 19.110,117.454 19.333,117.294 19.333 C 117.134 19.333,115.840 19.871,114.418 20.527 C 112.996 21.184,111.833 21.691,111.833 21.653 C 111.833 21.616,111.039 22.054,110.069 22.626 C 109.098 23.198,108.173 23.667,108.012 23.667 C 107.584 23.667,105.541 24.779,105.255 25.167 C 105.121 25.350,105.008 25.386,105.005 25.246 C 105.002 25.106,104.438 25.340,103.750 25.765 C 103.063 26.191,101.938 26.800,101.250 27.118 C 100.563 27.437,100.000 27.857,100.000 28.051 C 100.000 28.246,99.787 28.323,99.528 28.223 C 99.268 28.124,98.972 28.258,98.871 28.521 C 98.770 28.784,98.374 29.000,97.991 29.000 C 97.608 29.000,97.387 29.150,97.500 29.333 C 97.613 29.517,97.547 29.685,97.353 29.708 C 97.159 29.731,96.857 29.769,96.683 29.792 C 96.509 29.815,96.179 30.021,95.950 30.250 C 95.721 30.479,95.334 30.667,95.090 30.667 C 94.845 30.667,94.565 30.877,94.466 31.134 C 94.368 31.391,93.960 31.708,93.560 31.839 C 93.160 31.970,92.758 32.110,92.667 32.151 C 92.575 32.191,92.238 32.340,91.919 32.480 C 91.599 32.621,91.420 32.871,91.522 33.035 C 91.623 33.199,91.461 33.333,91.163 33.333 C 90.864 33.333,90.410 33.521,90.154 33.750 C 89.051 34.739,88.674 35.000,88.347 35.000 C 88.156 35.000,88.000 35.159,88.000 35.353 C 88.000 35.547,87.866 35.623,87.702 35.522 C 87.537 35.420,87.314 35.571,87.204 35.856 C 87.094 36.142,86.854 36.282,86.669 36.168 C 86.484 36.054,86.333 36.102,86.333 36.276 C 86.333 36.449,85.838 36.826,85.232 37.113 C 84.627 37.400,83.855 37.941,83.518 38.314 C 83.180 38.687,82.138 39.478,81.202 40.072 C 80.266 40.666,79.317 41.380,79.094 41.659 C 78.871 41.938,78.683 42.057,78.677 41.923 C 78.671 41.788,78.146 42.163,77.510 42.756 C 75.770 44.375,75.393 44.667,75.031 44.667 C 74.849 44.667,74.580 44.862,74.433 45.100 C 74.287 45.338,73.642 45.897,73.000 46.341 C 71.348 47.485,71.230 47.584,68.565 50.076 C 67.246 51.309,66.017 52.324,65.833 52.332 C 65.650 52.339,65.125 52.746,64.667 53.235 C 64.208 53.725,64.058 54.011,64.333 53.871 C 64.608 53.732,64.533 53.852,64.167 54.138 C 61.615 56.133,59.577 58.125,52.333 65.703 C 50.079 68.062,46.959 71.577,46.371 72.420 C 45.863 73.148,44.586 74.660,43.750 75.523 C 43.521 75.759,43.333 76.037,43.333 76.140 C 43.333 76.377,42.096 77.868,41.000 78.951 C 40.542 79.405,40.392 79.652,40.667 79.501 C 40.942 79.350,40.792 79.656,40.333 80.181 C 38.968 81.747,38.855 81.887,38.333 82.657 C 37.833 83.396,37.050 84.402,36.256 85.325 C 36.024 85.596,35.833 85.939,35.833 86.087 C 35.833 86.236,35.683 86.465,35.500 86.595 C 35.317 86.726,35.118 87.058,35.058 87.333 C 34.999 87.608,34.811 87.883,34.642 87.944 C 34.472 88.006,34.333 88.252,34.333 88.492 C 34.333 88.732,34.108 89.015,33.833 89.121 C 33.558 89.226,33.333 89.465,33.333 89.652 C 33.333 89.839,33.107 90.257,32.831 90.580 C 32.554 90.902,32.300 91.317,32.266 91.500 C 32.232 91.683,31.953 92.103,31.646 92.432 C 31.339 92.761,30.806 93.582,30.461 94.256 C 30.116 94.930,29.573 95.775,29.254 96.133 C 28.935 96.491,28.587 97.058,28.481 97.392 C 28.375 97.726,28.140 98.000,27.958 98.000 C 27.776 98.000,27.712 98.137,27.816 98.305 C 27.919 98.473,27.891 98.660,27.752 98.722 C 27.613 98.783,26.985 99.846,26.355 101.083 C 25.726 102.321,25.088 103.333,24.939 103.333 C 24.789 103.333,24.667 103.558,24.667 103.833 C 24.667 104.108,24.517 104.333,24.333 104.333 C 24.150 104.333,24.000 104.553,24.000 104.822 C 24.000 105.394,21.657 109.781,21.264 109.945 C 21.116 110.007,21.081 110.194,21.184 110.362 C 21.288 110.529,21.214 110.667,21.020 110.667 C 20.826 110.667,20.691 110.779,20.721 110.917 C 20.751 111.054,20.451 111.892,20.055 112.778 C 19.658 113.664,19.333 114.508,19.333 114.653 C 19.333 114.799,19.105 115.108,18.825 115.340 C 18.546 115.572,18.395 115.839,18.489 115.933 C 18.584 116.028,18.507 116.291,18.318 116.519 C 18.129 116.746,17.909 117.274,17.829 117.691 C 17.748 118.109,17.519 118.552,17.319 118.676 C 17.119 118.799,16.921 119.110,16.878 119.367 C 16.836 119.623,16.621 120.161,16.401 120.561 C 16.180 120.962,16.000 121.524,16.000 121.811 C 16.000 122.098,15.843 122.333,15.652 122.333 C 15.461 122.333,15.341 122.521,15.385 122.750 C 15.430 122.979,15.137 123.798,14.733 124.570 C 14.330 125.342,14.000 126.229,14.000 126.541 C 14.000 126.853,13.597 127.796,13.104 128.637 C 12.611 129.478,12.242 130.205,12.285 130.253 C 12.501 130.493,11.879 132.667,11.594 132.667 C 11.411 132.667,11.347 132.887,11.450 133.157 C 11.554 133.427,11.420 133.866,11.153 134.133 C 10.885 134.400,10.667 134.807,10.667 135.036 C 10.667 135.561,10.051 137.478,9.393 139.000 C 9.116 139.642,8.894 140.392,8.899 140.667 C 8.905 140.942,8.800 141.317,8.667 141.500 C 8.405 141.862,7.917 143.529,7.839 144.333 C 7.812 144.608,7.604 145.433,7.375 146.167 C 7.147 146.900,6.881 147.950,6.784 148.500 C 6.686 149.050,6.469 149.550,6.301 149.612 C 6.133 149.673,6.085 149.867,6.193 150.043 C 6.302 150.219,6.246 150.543,6.068 150.765 C 5.891 150.986,5.669 151.692,5.575 152.333 C 5.369 153.735,5.049 155.258,4.768 156.167 C 4.654 156.533,4.516 157.283,4.460 157.833 C 4.304 159.384,4.237 159.667,4.027 159.667 C 3.920 159.667,3.809 160.079,3.782 160.583 C 3.755 161.087,3.647 161.950,3.542 162.500 C 3.438 163.050,3.269 164.025,3.167 164.667 C 3.065 165.308,2.887 166.208,2.772 166.667 C 2.311 168.500,2.334 168.381,1.862 171.500 C 1.751 172.233,1.596 173.508,1.517 174.333 C 1.438 175.158,1.280 176.658,1.164 177.667 C 0.912 179.874,0.776 181.445,0.461 185.833 C 0.162 189.998,0.159 208.636,0.457 212.000 C 0.579 213.375,0.753 215.761,0.844 217.302 C 0.935 218.844,1.100 220.569,1.211 221.136 C 1.322 221.703,1.462 222.767,1.523 223.500 C 1.693 225.549,1.920 227.400,2.158 228.675 C 2.411 230.025,2.577 231.198,2.841 233.485 C 2.946 234.393,3.145 235.293,3.283 235.485 C 3.421 235.677,3.579 236.348,3.632 236.978 C 3.686 237.607,3.867 238.483,4.034 238.923 C 4.201 239.363,4.249 239.867,4.140 240.043 C 4.032 240.219,4.079 240.543,4.246 240.765 C 4.412 240.986,4.568 241.530,4.591 241.975 C 4.615 242.419,4.785 243.169,4.969 243.642 C 5.153 244.114,5.374 244.950,5.461 245.500 C 5.547 246.050,5.952 247.700,6.359 249.167 C 6.766 250.633,7.109 252.096,7.121 252.417 C 7.133 252.737,7.270 253.000,7.424 253.000 C 7.579 253.000,7.617 253.144,7.508 253.320 C 7.400 253.496,7.446 253.908,7.611 254.236 C 7.894 254.800,8.611 256.771,8.799 257.500 C 9.122 258.756,9.872 261.180,10.553 263.167 C 10.993 264.450,11.414 265.725,11.488 266.000 C 11.812 267.204,13.185 270.849,13.372 271.000 C 13.578 271.168,14.115 272.690,14.077 273.000 C 14.066 273.092,14.174 273.317,14.318 273.500 C 14.462 273.683,14.770 274.433,15.003 275.167 C 15.236 275.900,15.686 276.875,16.005 277.333 C 16.323 277.792,16.689 278.652,16.818 279.246 C 16.946 279.840,17.189 280.411,17.357 280.515 C 17.525 280.619,17.829 281.014,18.031 281.392 C 18.234 281.771,18.264 281.997,18.098 281.894 C 17.759 281.684,21.378 289.084,21.956 289.780 C 22.160 290.026,22.250 290.305,22.156 290.400 C 22.061 290.494,22.213 290.761,22.492 290.993 C 22.771 291.225,23.000 291.668,23.000 291.978 C 23.000 292.288,23.282 292.843,23.626 293.213 C 23.970 293.582,24.366 294.248,24.505 294.692 C 24.644 295.137,25.038 295.858,25.379 296.295 C 25.721 296.732,26.000 297.299,26.000 297.555 C 26.000 297.811,26.225 298.107,26.500 298.213 C 26.775 298.318,27.000 298.550,27.000 298.728 C 27.000 299.176,29.715 303.808,30.058 303.945 C 30.212 304.007,30.253 304.194,30.149 304.362 C 30.045 304.529,30.120 304.667,30.314 304.667 C 30.508 304.667,30.667 304.881,30.667 305.143 C 30.667 305.405,30.854 305.819,31.083 306.064 C 31.313 306.309,32.019 307.257,32.653 308.171 C 33.288 309.085,33.925 309.883,34.070 309.944 C 34.215 310.006,34.333 310.343,34.333 310.694 C 34.333 311.046,34.446 311.334,34.583 311.336 C 34.721 311.337,35.207 311.899,35.664 312.586 C 36.120 313.272,36.645 313.944,36.830 314.078 C 37.015 314.213,37.066 314.325,36.942 314.328 C 36.819 314.331,37.119 314.767,37.609 315.296 C 38.099 315.826,38.650 316.465,38.833 316.717 C 39.017 316.969,39.392 317.465,39.667 317.818 C 40.111 318.390,40.111 318.430,39.667 318.182 C 39.392 318.028,39.467 318.206,39.833 318.577 C 40.941 319.698,41.822 320.817,41.828 321.110 C 41.831 321.262,42.062 321.562,42.341 321.777 C 42.620 321.991,43.710 323.217,44.764 324.500 C 45.817 325.783,47.089 327.264,47.590 327.791 C 48.090 328.317,48.289 328.632,48.032 328.489 C 47.720 328.317,47.643 328.359,47.802 328.615 C 47.932 328.827,48.280 329.000,48.575 329.000 C 48.870 329.000,49.029 329.082,48.929 329.182 C 48.830 329.282,49.292 329.939,49.957 330.643 C 50.622 331.347,51.360 332.203,51.596 332.545 C 51.832 332.887,51.939 332.942,51.833 332.667 C 51.728 332.392,51.835 332.451,52.071 332.799 C 52.307 333.147,53.342 334.305,54.372 335.372 C 55.401 336.439,56.164 337.392,56.066 337.489 C 55.969 337.587,56.101 337.671,56.361 337.676 C 56.621 337.681,57.208 338.202,57.667 338.833 C 58.125 339.465,58.696 339.986,58.936 339.991 C 59.176 339.996,59.319 340.113,59.253 340.250 C 59.188 340.387,59.554 340.903,60.067 341.395 C 60.580 341.888,61.000 342.227,61.000 342.148 C 61.000 342.070,61.412 342.423,61.917 342.932 C 62.421 343.442,63.246 344.119,63.750 344.437 C 64.254 344.755,64.667 345.228,64.667 345.488 C 64.667 345.748,64.840 346.068,65.052 346.198 C 65.307 346.356,65.351 346.279,65.181 345.968 C 65.041 345.711,65.554 346.137,66.322 346.917 C 67.089 347.696,67.864 348.333,68.045 348.333 C 68.225 348.333,68.280 348.483,68.167 348.667 C 68.053 348.850,68.164 349.000,68.413 349.000 C 68.662 349.000,69.458 349.568,70.183 350.263 C 70.907 350.958,72.362 352.163,73.417 352.940 C 74.471 353.718,75.333 354.500,75.333 354.677 C 75.333 354.855,75.497 355.000,75.697 355.000 C 76.086 355.000,77.256 355.837,79.308 357.583 C 80.008 358.179,80.749 358.667,80.954 358.667 C 81.160 358.667,81.515 358.967,81.744 359.333 C 81.973 359.700,82.280 360.000,82.427 360.000 C 82.762 360.000,84.795 361.413,84.944 361.750 C 85.006 361.887,85.273 362.000,85.538 362.000 C 85.804 362.000,86.107 362.225,86.213 362.500 C 86.318 362.775,86.670 363.000,86.995 363.000 C 87.319 363.000,87.780 363.235,88.018 363.522 C 88.257 363.809,88.912 364.280,89.476 364.568 C 90.039 364.857,90.575 365.190,90.667 365.307 C 90.758 365.425,91.658 366.039,92.667 366.672 C 93.675 367.304,94.550 367.936,94.611 368.077 C 94.672 368.218,94.885 368.333,95.083 368.333 C 95.282 368.333,96.527 369.008,97.851 369.833 C 99.174 370.658,100.360 371.333,100.486 371.333 C 100.611 371.333,100.939 371.558,101.214 371.833 C 101.489 372.108,101.975 372.333,102.294 372.333 C 102.613 372.333,103.165 372.604,103.520 372.935 C 103.876 373.266,104.278 373.571,104.413 373.611 C 105.154 373.833,105.853 374.141,106.000 374.311 C 106.239 374.587,112.357 377.546,113.250 377.817 C 113.662 377.942,114.000 378.185,114.000 378.356 C 114.000 378.527,114.206 378.667,114.457 378.667 C 115.042 378.667,119.770 380.722,120.031 381.090 C 120.139 381.243,120.364 381.344,120.531 381.315 C 121.076 381.218,122.333 381.737,122.333 382.059 C 122.333 382.231,122.457 382.297,122.607 382.203 C 122.758 382.110,123.300 382.251,123.812 382.517 C 124.324 382.783,124.951 383.000,125.205 383.000 C 125.459 383.000,125.667 383.117,125.667 383.261 C 125.667 383.404,126.071 383.555,126.565 383.596 C 127.059 383.636,127.581 383.857,127.726 384.085 C 127.871 384.313,127.992 384.370,127.995 384.212 C 127.998 384.053,128.337 384.142,128.750 384.409 C 129.370 384.811,130.134 385.093,131.667 385.489 C 131.758 385.512,133.558 386.100,135.667 386.795 C 137.775 387.490,139.870 388.129,140.323 388.216 C 140.776 388.302,141.305 388.505,141.500 388.667 C 141.838 388.947,142.627 389.155,144.833 389.546 C 145.383 389.643,146.808 390.040,148.000 390.429 C 149.192 390.817,150.429 391.095,150.750 391.046 C 151.071 390.998,151.333 391.086,151.333 391.241 C 151.333 391.397,151.802 391.561,152.375 391.604 C 152.948 391.648,154.785 391.993,156.458 392.371 C 158.131 392.749,159.800 393.097,160.167 393.144 C 160.533 393.191,161.133 393.321,161.500 393.434 C 161.867 393.547,162.842 393.727,163.667 393.835 C 164.492 393.942,165.542 394.099,166.000 394.184 C 167.095 394.386,168.393 394.559,170.833 394.829 C 171.933 394.950,173.208 395.111,173.667 395.185 C 174.125 395.259,175.287 395.398,176.250 395.493 C 177.212 395.589,178.862 395.760,179.917 395.874 C 180.971 395.988,182.808 396.151,184.000 396.236 C 187.457 396.482,207.799 396.604,208.167 396.380 C 208.350 396.269,209.550 396.153,210.833 396.123 C 212.117 396.093,213.167 396.037,213.167 395.998 C 213.167 395.929,213.811 395.869,218.500 395.499 C 221.676 395.248,222.926 395.085,223.262 394.878 C 223.418 394.781,224.435 394.615,225.523 394.508 C 226.610 394.402,227.875 394.251,228.333 394.174 C 228.792 394.097,229.617 393.958,230.167 393.866 C 230.717 393.774,231.542 393.618,232.000 393.518 C 233.584 393.175,236.503 392.603,237.333 392.472 C 239.997 392.053,242.522 391.503,242.667 391.310 C 242.758 391.188,243.658 390.931,244.667 390.738 C 247.087 390.277,251.525 389.096,252.254 388.720 C 252.878 388.398,255.339 387.852,255.750 387.944 C 255.887 387.975,256.000 387.850,256.000 387.667 C 256.000 387.483,256.112 387.369,256.250 387.414 C 256.387 387.458,257.175 387.257,258.000 386.968 C 258.825 386.679,260.025 386.257,260.667 386.031 C 261.308 385.805,261.983 385.585,262.167 385.542 C 262.855 385.380,265.179 384.572,265.500 384.382 C 265.858 384.171,266.577 383.983,267.250 383.925 C 267.479 383.905,267.667 383.764,267.667 383.611 C 267.667 383.458,267.779 383.358,267.917 383.387 C 268.054 383.417,268.617 383.237,269.167 382.989 C 269.717 382.740,270.317 382.514,270.500 382.487 C 270.683 382.460,271.283 382.241,271.833 382.001 C 272.383 381.761,273.014 381.527,273.236 381.480 C 273.643 381.396,274.946 380.771,276.167 380.077 C 277.302 379.430,280.145 378.207,280.571 378.183 C 280.793 378.170,281.160 377.973,281.387 377.746 C 281.614 377.519,282.033 377.323,282.317 377.311 C 282.601 377.299,283.583 376.850,284.500 376.314 C 285.417 375.777,287.442 374.702,289.000 373.924 C 290.558 373.145,291.944 372.357,292.078 372.171 C 292.239 371.950,292.327 371.948,292.333 372.167 C 292.339 372.367,292.441 372.356,292.588 372.140 C 292.723 371.943,293.658 371.343,294.667 370.807 C 295.675 370.272,296.682 369.662,296.905 369.452 C 297.128 369.242,297.953 368.745,298.739 368.347 C 299.524 367.949,300.617 367.334,301.167 366.982 C 301.717 366.629,302.504 366.165,302.917 365.950 C 303.329 365.735,303.667 365.434,303.667 365.280 C 303.667 365.126,303.863 365.000,304.104 365.000 C 304.344 365.000,304.853 364.709,305.235 364.353 C 305.617 363.998,306.020 363.798,306.131 363.909 C 306.242 364.020,306.333 363.936,306.333 363.722 C 306.333 363.508,306.553 363.333,306.822 363.333 C 307.090 363.333,307.473 363.029,307.672 362.657 C 307.871 362.286,308.177 362.070,308.352 362.178 C 308.528 362.287,308.759 362.148,308.865 361.871 C 308.972 361.593,309.571 361.197,310.196 360.990 C 310.822 360.784,311.333 360.472,311.333 360.297 C 311.333 360.122,311.566 359.890,311.851 359.780 C 312.135 359.671,312.991 359.001,313.753 358.291 C 314.514 357.581,315.331 357.000,315.569 357.000 C 315.806 357.000,316.000 356.875,316.000 356.723 C 316.000 356.571,316.404 356.233,316.899 355.973 C 317.393 355.713,318.271 355.050,318.850 354.500 C 319.980 353.427,321.914 351.902,322.371 351.725 C 322.524 351.665,323.160 351.140,323.782 350.558 C 326.698 347.833,328.183 346.521,328.360 346.511 C 328.467 346.505,329.346 345.712,330.313 344.750 C 331.281 343.787,332.130 343.000,332.200 343.000 C 332.525 343.000,341.908 333.352,341.743 333.187 C 341.640 333.084,341.806 333.000,342.111 333.000 C 342.417 333.000,342.667 332.780,342.667 332.512 C 342.667 332.243,342.967 331.863,343.333 331.667 C 343.700 331.470,344.000 331.167,344.000 330.993 C 344.000 330.818,344.712 329.938,345.583 329.037 C 347.490 327.064,348.565 325.801,349.291 324.681 C 349.589 324.221,350.058 323.601,350.333 323.303 C 350.608 323.006,351.208 322.280,351.667 321.691 C 352.125 321.101,352.800 320.285,353.167 319.878 C 353.533 319.470,354.433 318.248,355.167 317.162 C 355.900 316.076,356.826 314.808,357.224 314.344 C 358.351 313.030,360.333 310.054,360.333 309.675 C 360.333 309.487,360.483 309.333,360.667 309.333 C 360.850 309.333,361.000 309.163,361.000 308.956 C 361.000 308.748,361.266 308.336,361.592 308.039 C 362.232 307.456,363.482 305.605,363.419 305.333 C 363.398 305.242,363.595 304.929,363.858 304.640 C 364.120 304.350,364.245 304.023,364.135 303.913 C 364.025 303.803,364.250 303.516,364.634 303.276 C 365.019 303.036,365.333 302.636,365.333 302.388 C 365.333 301.997,366.453 300.151,366.984 299.667 C 367.084 299.575,367.215 299.275,367.275 299.000 C 367.335 298.725,367.522 298.450,367.692 298.389 C 367.861 298.328,368.000 298.009,368.000 297.680 C 368.000 297.351,368.225 296.895,368.500 296.667 C 368.775 296.438,369.000 296.063,369.000 295.833 C 369.000 295.603,369.210 295.241,369.467 295.028 C 369.962 294.617,372.333 290.009,372.333 289.458 C 372.333 289.280,372.521 288.946,372.750 288.717 C 372.979 288.488,373.174 288.195,373.183 288.067 C 373.231 287.390,373.754 286.333,374.042 286.333 C 374.224 286.333,374.280 286.183,374.167 286.000 C 374.053 285.817,374.087 285.667,374.241 285.667 C 374.506 285.667,375.297 284.037,375.519 283.033 C 375.576 282.777,375.745 282.477,375.895 282.367 C 376.044 282.257,376.215 281.948,376.273 281.680 C 376.332 281.413,376.969 279.941,377.690 278.411 C 378.410 276.880,379.000 275.579,379.000 275.521 C 379.000 275.463,379.227 274.872,379.504 274.209 C 379.781 273.546,380.012 272.930,380.018 272.841 C 380.024 272.752,380.265 272.114,380.554 271.423 C 381.239 269.784,381.710 268.542,381.726 268.333 C 381.733 268.242,382.028 267.599,382.382 266.905 C 382.736 266.211,382.936 265.499,382.826 265.322 C 382.717 265.145,382.795 265.000,383.000 265.000 C 383.205 265.000,383.280 264.850,383.167 264.667 C 383.053 264.483,383.115 264.333,383.303 264.333 C 383.492 264.333,383.559 264.108,383.454 263.833 C 383.348 263.558,383.435 263.333,383.646 263.333 C 383.857 263.333,383.998 263.146,383.960 262.917 C 383.871 262.374,384.238 260.944,385.053 258.667 C 385.414 257.658,385.787 256.383,385.882 255.833 C 385.977 255.283,386.334 254.196,386.676 253.417 C 387.017 252.637,387.211 252.000,387.107 252.000 C 387.003 252.000,387.100 251.782,387.321 251.515 C 387.543 251.248,387.628 250.874,387.511 250.685 C 387.394 250.496,387.513 249.852,387.776 249.254 C 388.168 248.360,389.186 244.111,389.851 240.593 C 389.930 240.175,390.078 239.458,390.179 239.000 C 390.845 235.995,391.712 231.201,391.838 229.833 C 391.888 229.283,391.957 228.833,391.990 228.833 C 392.090 228.833,392.260 227.789,392.494 225.751 C 392.615 224.696,392.771 223.383,392.842 222.833 C 393.011 221.519,393.355 217.597,393.484 215.500 C 393.541 214.583,393.619 213.833,393.656 213.833 C 394.429 213.833,394.051 186.406,393.186 179.662 C 393.080 178.839,392.911 177.342,392.809 176.333 C 392.707 175.325,392.477 173.732,392.298 172.794 C 392.118 171.855,391.995 170.955,392.025 170.794 C 392.055 170.632,392.050 170.425,392.014 170.333 C 391.893 170.023,391.678 168.839,391.500 167.500 C 391.402 166.767,391.259 165.942,391.183 165.667 C 391.107 165.392,390.951 164.417,390.836 163.500 C 390.722 162.583,390.505 161.278,390.354 160.600 C 390.202 159.921,390.161 159.284,390.261 159.183 C 390.362 159.082,390.301 159.000,390.126 159.000 C 389.845 159.000,389.645 158.043,389.554 156.250 C 389.537 155.929,389.438 155.667,389.333 155.667 C 389.228 155.667,389.120 155.370,389.092 155.008 C 389.065 154.646,388.791 153.408,388.483 152.258 C 388.175 151.108,387.853 149.792,387.768 149.333 C 387.682 148.875,387.525 148.275,387.418 148.000 C 387.312 147.725,387.193 147.387,387.154 147.250 C 387.115 147.112,387.053 146.962,387.016 146.917 C 386.979 146.871,386.904 146.604,386.848 146.324 C 386.793 146.044,386.490 144.919,386.176 143.824 C 385.862 142.729,385.442 141.233,385.242 140.500 C 385.043 139.767,384.744 138.986,384.578 138.765 C 384.412 138.543,384.373 138.206,384.491 138.015 C 384.609 137.823,384.571 137.667,384.406 137.667 C 384.241 137.667,383.909 136.842,383.667 135.833 C 383.425 134.825,383.101 134.000,382.947 134.000 C 382.793 134.000,382.667 133.618,382.667 133.150 C 382.667 132.683,382.411 131.820,382.099 131.233 C 381.787 130.647,381.568 129.979,381.614 129.750 C 381.659 129.521,381.530 129.333,381.328 129.333 C 381.126 129.333,381.053 129.184,381.166 129.001 C 381.279 128.818,381.138 128.334,380.853 127.926 C 380.567 127.519,380.333 126.984,380.333 126.738 C 380.333 126.492,379.871 125.333,379.306 124.162 C 378.741 122.990,378.250 121.831,378.214 121.586 C 378.177 121.340,377.835 120.608,377.452 119.959 C 377.069 119.310,376.575 118.231,376.353 117.561 C 376.132 116.891,375.812 116.257,375.642 116.152 C 375.472 116.047,375.333 115.670,375.333 115.314 C 375.333 114.958,375.167 114.667,374.964 114.667 C 374.761 114.667,374.677 114.453,374.778 114.191 C 374.878 113.929,374.741 113.533,374.472 113.310 C 374.204 113.087,374.064 112.825,374.162 112.727 C 374.259 112.629,374.012 112.201,373.613 111.776 C 373.213 111.351,372.985 110.904,373.105 110.784 C 373.225 110.664,373.092 110.397,372.810 110.190 C 372.527 109.984,372.263 109.594,372.222 109.324 C 372.181 109.054,372.056 108.683,371.944 108.500 C 370.621 106.339,368.189 101.544,368.267 101.250 C 368.304 101.112,368.217 101.000,368.076 101.000 C 367.934 101.000,367.523 100.437,367.162 99.750 C 366.802 99.063,366.318 98.380,366.087 98.233 C 365.856 98.087,365.663 97.787,365.657 97.567 C 365.652 97.347,364.990 96.195,364.185 95.007 C 363.380 93.820,362.783 92.748,362.859 92.626 C 362.934 92.503,362.783 92.322,362.523 92.222 C 362.263 92.122,361.807 91.526,361.509 90.898 C 361.211 90.270,360.660 89.427,360.284 89.024 C 359.909 88.621,359.574 88.104,359.540 87.874 C 359.480 87.461,358.831 86.543,357.074 84.386 C 356.575 83.774,356.167 83.149,356.167 82.998 C 356.167 82.846,355.806 82.410,355.366 82.028 C 354.925 81.646,354.670 81.333,354.799 81.333 C 354.928 81.333,354.577 80.846,354.018 80.250 C 353.460 79.654,353.002 79.065,353.002 78.940 C 353.001 78.816,352.807 78.516,352.571 78.274 C 352.335 78.032,351.707 77.233,351.174 76.500 C 350.642 75.767,349.897 74.840,349.520 74.441 C 349.142 74.042,348.383 73.161,347.833 72.482 C 347.283 71.803,346.174 70.592,345.368 69.790 C 344.563 68.989,344.002 68.333,344.122 68.333 C 344.426 68.333,342.017 65.772,336.250 59.964 C 333.546 57.241,331.328 55.122,331.322 55.256 C 331.315 55.390,331.095 55.125,330.833 54.667 C 330.571 54.208,330.352 53.949,330.345 54.089 C 330.339 54.230,329.846 53.855,329.250 53.256 C 328.654 52.657,327.436 51.579,326.544 50.862 C 325.651 50.144,324.570 49.207,324.142 48.779 C 323.714 48.350,323.207 48.000,323.015 48.000 C 322.823 48.000,322.667 47.849,322.667 47.665 C 322.667 47.481,321.692 46.628,320.500 45.771 C 319.308 44.914,318.333 44.081,318.333 43.920 C 318.333 43.759,318.182 43.721,317.998 43.835 C 317.813 43.949,317.572 43.808,317.462 43.521 C 317.352 43.235,317.053 43.000,316.798 43.000 C 316.542 43.000,316.333 42.862,316.333 42.694 C 316.333 42.525,315.771 42.043,315.083 41.621 C 313.762 40.811,313.732 40.789,312.167 39.491 C 311.617 39.036,310.904 38.578,310.583 38.476 C 310.262 38.373,310.000 38.149,310.000 37.978 C 310.000 37.807,309.812 37.667,309.582 37.667 C 309.352 37.667,308.740 37.217,308.221 36.667 C 307.702 36.117,307.085 35.667,306.851 35.667 C 306.616 35.667,306.029 35.271,305.545 34.788 C 305.062 34.305,304.667 34.031,304.667 34.179 C 304.667 34.328,304.280 34.086,303.806 33.641 C 303.333 33.197,302.846 32.872,302.723 32.919 C 302.600 32.967,302.236 32.779,301.913 32.503 C 301.590 32.226,301.196 32.000,301.037 32.000 C 300.878 32.000,300.559 31.771,300.327 31.492 C 300.095 31.213,299.834 31.055,299.746 31.143 C 299.659 31.230,299.385 31.121,299.139 30.901 C 298.166 30.032,297.793 29.792,296.750 29.364 C 296.154 29.119,295.667 28.778,295.667 28.607 C 295.667 28.435,295.517 28.387,295.333 28.500 C 295.150 28.613,295.000 28.547,295.000 28.353 C 295.000 28.159,294.728 28.000,294.396 28.000 C 294.064 28.000,293.502 27.730,293.146 27.400 C 292.531 26.828,291.468 26.257,290.905 26.195 C 290.760 26.180,290.519 25.966,290.367 25.722 C 290.216 25.477,290.034 25.299,289.963 25.326 C 289.701 25.427,288.487 24.858,288.056 24.432 C 287.813 24.191,287.475 24.079,287.306 24.183 C 287.138 24.287,287.000 24.214,287.000 24.020 C 287.000 23.826,286.711 23.667,286.357 23.667 C 286.004 23.667,285.483 23.435,285.200 23.152 C 284.789 22.742,282.094 21.348,281.333 21.152 C 281.242 21.128,280.867 20.992,280.500 20.849 C 278.559 20.091,278.000 19.817,278.000 19.621 C 278.000 19.503,277.621 19.310,277.158 19.194 C 276.695 19.078,275.504 18.612,274.512 18.158 C 273.521 17.704,272.554 17.333,272.364 17.333 C 272.173 17.333,271.376 17.045,270.592 16.693 C 269.808 16.340,268.567 15.784,267.833 15.456 C 267.100 15.128,266.387 14.892,266.250 14.930 C 266.112 14.969,266.000 14.841,266.000 14.647 C 266.000 14.453,265.881 14.368,265.735 14.458 C 265.590 14.548,264.852 14.344,264.096 14.006 C 263.340 13.667,262.635 13.476,262.529 13.582 C 262.424 13.687,262.037 13.501,261.669 13.169 C 261.301 12.836,261.000 12.654,261.000 12.764 C 261.000 12.874,260.152 12.672,259.114 12.315 C 258.077 11.959,256.952 11.667,256.614 11.667 C 256.277 11.667,256.000 11.508,256.000 11.314 C 256.000 11.120,255.887 11.027,255.750 11.108 C 255.612 11.189,255.125 11.100,254.667 10.910 C 254.208 10.721,253.470 10.505,253.026 10.430 C 252.581 10.356,251.946 10.150,251.614 9.972 C 251.281 9.794,250.370 9.512,249.588 9.346 C 248.806 9.179,247.567 8.878,246.833 8.677 C 246.100 8.476,245.166 8.240,244.759 8.151 C 244.351 8.063,243.618 7.838,243.129 7.652 C 242.641 7.467,242.171 7.384,242.086 7.469 C 242.001 7.554,241.563 7.484,241.113 7.313 C 240.662 7.142,239.815 6.926,239.230 6.834 C 238.645 6.742,237.154 6.460,235.917 6.207 C 234.679 5.954,233.667 5.835,233.667 5.941 C 233.667 6.047,233.487 5.953,233.267 5.733 C 233.047 5.513,232.388 5.333,231.803 5.333 C 231.219 5.333,229.561 5.116,228.120 4.851 C 224.305 4.150,223.389 4.013,221.167 3.817 C 220.067 3.719,217.892 3.483,216.333 3.293 C 214.775 3.102,212.450 2.877,211.167 2.793 C 208.326 2.607,187.078 2.367,186.925 2.519 M197.696 27.187 C 197.170 28.276,196.636 29.654,196.510 30.250 C 196.384 30.846,196.174 31.333,196.044 31.333 C 195.915 31.333,195.773 31.804,195.729 32.379 C 195.685 32.955,195.545 33.592,195.417 33.796 C 195.049 34.384,194.988 34.986,194.988 38.000 C 194.988 43.760,195.606 47.241,197.590 52.667 C 197.690 52.942,197.746 53.287,197.714 53.435 C 197.681 53.582,197.884 53.931,198.164 54.211 C 198.444 54.491,198.591 54.853,198.490 55.015 C 198.390 55.178,198.614 55.910,198.987 56.642 C 199.361 57.374,199.667 58.169,199.667 58.408 C 199.667 58.648,199.967 59.403,200.333 60.087 C 200.700 60.771,201.003 61.594,201.007 61.915 C 201.012 62.237,201.458 63.400,202.000 64.500 C 202.542 65.600,202.988 66.594,202.993 66.709 C 202.997 66.824,203.211 67.424,203.470 68.043 C 203.728 68.661,203.933 69.242,203.924 69.333 C 203.916 69.425,204.230 70.098,204.621 70.828 C 205.013 71.559,205.333 72.497,205.333 72.912 C 205.333 73.327,205.483 73.667,205.667 73.667 C 205.850 73.667,205.976 73.779,205.946 73.917 C 205.917 74.054,206.081 74.617,206.313 75.167 C 206.544 75.717,206.763 76.317,206.799 76.500 C 206.836 76.683,207.045 77.159,207.264 77.558 C 207.484 77.957,207.716 78.557,207.781 78.891 C 207.845 79.226,208.071 79.922,208.282 80.438 C 208.494 80.954,208.667 81.559,208.667 81.781 C 208.667 82.003,208.878 82.487,209.137 82.857 C 209.579 83.487,210.851 87.380,210.688 87.601 C 210.647 87.656,210.854 88.069,211.148 88.518 C 211.442 88.966,211.585 89.333,211.467 89.333 C 211.349 89.333,211.438 89.558,211.667 89.833 C 211.895 90.108,211.997 90.333,211.894 90.333 C 211.791 90.333,212.084 91.421,212.546 92.750 C 213.007 94.079,213.426 95.317,213.475 95.500 C 213.525 95.683,213.659 96.058,213.773 96.333 C 213.887 96.608,214.051 97.208,214.138 97.667 C 214.224 98.125,214.424 98.950,214.581 99.500 C 214.739 100.050,214.851 100.725,214.830 101.000 C 214.809 101.275,214.927 101.681,215.092 101.902 C 215.256 102.123,215.290 102.467,215.167 102.667 C 215.043 102.866,215.118 103.240,215.332 103.499 C 215.546 103.757,215.624 104.275,215.505 104.651 C 215.374 105.063,215.437 105.333,215.664 105.333 C 215.870 105.333,215.973 105.446,215.892 105.583 C 215.811 105.721,215.876 106.733,216.037 107.833 C 216.197 108.933,216.410 110.658,216.509 111.667 C 216.806 114.672,216.956 116.076,217.171 117.833 C 217.283 118.750,217.431 120.325,217.500 121.333 C 217.628 123.205,217.911 126.444,218.155 128.833 C 218.230 129.567,218.392 131.217,218.515 132.500 C 218.638 133.783,218.797 135.133,218.869 135.500 C 218.940 135.867,219.071 136.992,219.160 138.000 C 219.288 139.447,219.814 142.624,220.279 144.750 C 220.309 144.887,220.333 145.250,220.333 145.556 C 220.333 146.901,220.841 145.440,220.913 143.889 C 220.990 142.216,221.070 140.809,221.479 133.833 C 221.587 132.000,221.762 129.975,221.868 129.333 C 221.974 128.692,222.116 127.417,222.185 126.500 C 222.253 125.583,222.368 124.308,222.440 123.667 C 222.512 123.025,222.679 121.225,222.813 119.667 C 222.946 118.108,223.140 116.608,223.243 116.333 C 223.347 116.058,223.470 115.383,223.517 114.833 C 223.563 114.283,223.682 113.383,223.781 112.833 C 223.881 112.283,224.056 111.008,224.171 110.000 C 224.286 108.992,224.533 107.492,224.719 106.667 C 225.175 104.644,225.302 103.970,225.475 102.635 C 225.556 102.011,225.651 101.500,225.687 101.500 C 225.722 101.500,225.798 101.200,225.854 100.833 C 226.046 99.586,226.352 98.168,226.538 97.667 C 226.640 97.392,226.779 96.755,226.846 96.252 C 226.990 95.167,227.963 91.047,228.243 90.333 C 228.351 90.058,228.418 89.728,228.392 89.599 C 228.365 89.471,228.702 88.308,229.139 87.016 C 229.576 85.724,229.868 84.667,229.788 84.667 C 229.709 84.667,229.829 84.329,230.056 83.917 C 230.284 83.504,230.524 82.794,230.590 82.340 C 230.656 81.885,230.858 81.421,231.039 81.309 C 231.220 81.197,231.336 80.969,231.297 80.803 C 231.258 80.636,231.413 80.050,231.642 79.500 C 231.872 78.950,232.114 78.229,232.181 77.897 C 232.366 76.979,236.297 69.066,237.555 67.077 C 238.167 66.111,238.667 65.238,238.667 65.136 C 238.667 65.035,238.854 64.756,239.083 64.517 C 239.313 64.278,239.725 63.745,240.000 63.333 C 240.275 62.922,240.688 62.389,240.917 62.150 C 241.146 61.910,241.333 61.608,241.333 61.479 C 241.333 61.349,241.708 60.896,242.167 60.471 C 242.625 60.046,243.000 59.591,243.000 59.460 C 243.000 59.139,246.791 55.680,246.959 55.847 C 247.031 55.920,246.868 56.321,246.596 56.740 C 245.956 57.725,244.954 60.768,244.766 62.300 C 244.684 62.960,244.478 64.045,244.306 64.711 C 243.353 68.422,243.368 78.940,244.331 82.167 C 244.496 82.717,244.715 83.743,244.818 84.448 C 245.167 86.824,246.075 90.497,246.420 90.925 C 246.608 91.158,246.677 91.435,246.572 91.539 C 246.468 91.643,246.667 92.389,247.013 93.197 C 247.360 94.005,247.571 94.667,247.484 94.667 C 247.396 94.667,247.545 95.194,247.814 95.839 C 248.084 96.484,248.329 97.122,248.359 97.256 C 248.461 97.713,248.983 98.999,249.710 100.584 C 250.109 101.455,250.438 102.354,250.440 102.583 C 250.443 102.813,250.594 103.000,250.778 103.000 C 250.961 103.000,251.016 103.095,250.901 103.210 C 250.785 103.326,250.867 103.739,251.083 104.127 C 251.299 104.516,251.482 104.938,251.488 105.067 C 251.495 105.195,251.688 105.488,251.917 105.717 C 252.146 105.946,252.333 106.268,252.333 106.433 C 252.333 106.973,253.425 109.143,254.281 110.307 C 254.743 110.934,254.906 111.315,254.644 111.153 C 254.381 110.991,254.654 111.474,255.250 112.227 C 255.846 112.980,256.333 113.690,256.333 113.805 C 256.333 113.919,256.708 114.607,257.167 115.333 C 257.625 116.059,258.000 116.881,258.000 117.160 C 258.000 117.439,258.159 117.667,258.353 117.667 C 258.547 117.667,258.625 117.797,258.527 117.957 C 258.428 118.116,258.720 118.678,259.176 119.207 C 259.631 119.735,259.934 120.349,259.850 120.573 C 259.765 120.796,259.842 121.069,260.021 121.180 C 260.462 121.452,263.333 127.258,263.333 127.878 C 263.333 128.150,263.483 128.280,263.667 128.167 C 263.850 128.053,264.000 128.171,264.000 128.429 C 264.000 128.687,264.216 129.333,264.480 129.865 C 265.141 131.201,265.788 132.767,265.842 133.167 C 265.867 133.350,266.045 133.875,266.236 134.333 C 267.443 137.220,268.557 140.784,268.277 140.865 C 268.216 140.883,268.367 141.139,268.612 141.434 C 268.857 141.729,268.961 142.127,268.842 142.319 C 268.724 142.510,268.761 142.667,268.925 142.667 C 269.088 142.667,269.228 142.854,269.234 143.083 C 269.241 143.313,269.510 144.475,269.832 145.667 C 270.154 146.858,270.467 148.283,270.526 148.833 C 270.586 149.383,270.732 150.208,270.851 150.667 C 271.052 151.437,271.241 152.501,271.476 154.167 C 271.527 154.533,271.669 155.808,271.791 157.000 C 271.913 158.192,272.097 159.992,272.201 161.000 C 273.009 168.856,272.827 180.440,271.829 184.667 C 271.721 185.125,271.561 185.875,271.475 186.333 C 270.513 191.408,270.242 192.640,269.903 193.500 C 269.685 194.050,269.498 194.575,269.485 194.667 C 269.354 195.628,268.860 197.203,268.645 197.340 C 268.496 197.436,268.297 197.937,268.204 198.453 C 268.110 198.969,267.858 199.603,267.643 199.862 C 267.428 200.121,267.363 200.333,267.500 200.333 C 267.637 200.333,267.581 200.535,267.377 200.781 C 267.173 201.027,267.104 201.327,267.225 201.447 C 267.346 201.568,267.286 201.667,267.093 201.667 C 266.899 201.667,266.643 202.187,266.524 202.823 C 266.405 203.458,266.083 204.203,265.808 204.477 C 265.534 204.752,265.337 205.019,265.370 205.071 C 265.536 205.331,264.912 206.667,264.625 206.667 C 264.443 206.667,264.385 206.814,264.496 206.994 C 264.608 207.174,264.317 207.884,263.849 208.571 C 263.382 209.259,263.000 210.012,263.000 210.244 C 263.000 210.476,262.850 210.667,262.667 210.667 C 262.483 210.667,262.333 210.863,262.333 211.104 C 262.333 211.344,262.033 211.863,261.667 212.257 C 261.300 212.650,261.000 213.117,261.000 213.294 C 261.000 213.471,260.475 214.303,259.833 215.144 C 259.192 215.985,258.667 216.814,258.667 216.986 C 258.667 217.159,258.464 217.420,258.215 217.567 C 257.967 217.713,257.580 218.184,257.355 218.612 C 256.942 219.398,256.016 220.576,254.884 221.757 C 254.281 222.385,254.285 222.393,255.050 222.136 C 255.481 221.992,256.208 221.839,256.667 221.797 C 257.125 221.755,257.500 221.698,257.500 221.671 C 257.500 221.643,257.875 221.569,258.333 221.506 C 258.792 221.443,260.442 221.084,262.000 220.709 C 265.175 219.944,267.925 219.392,269.667 219.170 C 270.308 219.088,271.133 218.885,271.500 218.719 C 272.087 218.454,274.918 217.805,276.833 217.496 C 277.200 217.437,277.500 217.365,277.500 217.336 C 277.500 217.307,277.875 217.222,278.333 217.146 C 278.792 217.070,280.419 216.767,281.950 216.471 C 285.059 215.871,286.114 215.682,287.333 215.507 C 287.792 215.441,288.167 215.364,288.167 215.335 C 288.167 215.269,289.242 215.028,290.333 214.849 C 290.792 214.774,291.167 214.691,291.167 214.664 C 291.167 214.637,291.467 214.562,291.833 214.496 C 292.823 214.318,295.451 213.872,295.833 213.817 C 296.017 213.790,296.429 213.655,296.750 213.515 C 297.071 213.376,297.540 213.341,297.793 213.438 C 298.045 213.535,298.388 213.479,298.553 213.313 C 298.719 213.147,299.525 212.943,300.344 212.858 C 301.163 212.774,301.833 212.685,301.833 212.661 C 301.833 212.618,302.307 212.518,304.000 212.204 C 304.458 212.119,304.871 212.038,304.917 212.025 C 305.408 211.879,308.091 211.339,309.167 211.170 C 309.717 211.084,310.617 210.911,311.167 210.787 C 311.717 210.662,312.467 210.526,312.833 210.484 C 313.200 210.442,313.875 210.311,314.333 210.192 C 314.792 210.073,315.542 209.916,316.000 209.843 C 316.458 209.770,317.358 209.606,318.000 209.478 C 318.964 209.286,319.094 209.322,318.750 209.689 C 318.521 209.933,318.331 210.441,318.328 210.817 C 318.323 211.577,317.429 214.307,317.015 214.831 C 316.869 215.015,316.262 216.632,315.667 218.422 C 315.073 220.212,314.445 221.764,314.272 221.871 C 313.931 222.082,313.217 223.607,313.180 224.205 C 313.167 224.409,312.986 224.784,312.778 225.038 C 312.570 225.292,311.704 226.925,310.854 228.667 C 310.004 230.408,309.128 232.133,308.909 232.500 C 306.661 236.255,305.863 237.525,305.661 237.667 C 305.530 237.758,305.326 238.144,305.208 238.525 C 305.089 238.905,304.732 239.505,304.413 239.858 C 304.094 240.211,303.633 240.890,303.387 241.366 C 303.000 242.118,302.444 242.867,301.007 244.569 C 300.820 244.791,300.667 245.095,300.667 245.246 C 300.667 245.396,300.367 245.736,300.000 246.000 C 299.633 246.264,299.333 246.619,299.333 246.789 C 299.333 246.959,298.771 247.788,298.084 248.632 C 297.397 249.476,296.609 250.460,296.334 250.819 C 296.059 251.178,295.346 251.939,294.750 252.510 C 294.154 253.080,293.667 253.706,293.667 253.900 C 293.667 254.094,293.047 254.796,292.290 255.460 C 291.533 256.124,291.018 256.667,291.147 256.667 C 291.276 256.667,290.824 257.192,290.144 257.833 L 288.907 259.000 196.870 258.999 L 104.833 258.999 103.704 257.342 C 103.083 256.430,102.456 255.758,102.311 255.847 C 102.166 255.936,101.950 255.701,101.830 255.324 C 101.711 254.947,101.025 254.039,100.306 253.306 C 99.588 252.573,99.000 251.822,99.000 251.637 C 99.000 251.453,98.588 250.919,98.083 250.452 C 97.579 249.985,97.165 249.504,97.163 249.385 C 97.161 249.265,96.503 248.342,95.702 247.333 C 94.900 246.325,94.009 245.125,93.721 244.667 C 93.434 244.208,92.742 243.239,92.183 242.513 C 91.624 241.788,91.164 241.113,91.161 241.013 C 91.159 240.914,90.518 239.933,89.738 238.833 C 88.958 237.733,88.336 236.697,88.356 236.530 C 88.377 236.363,88.153 236.092,87.859 235.928 C 87.326 235.630,87.042 235.147,84.071 229.500 C 83.202 227.850,82.346 226.275,82.168 226.000 C 81.989 225.725,81.831 225.425,81.815 225.333 C 81.763 225.034,80.852 223.171,80.673 223.000 C 80.578 222.908,80.452 222.608,80.393 222.333 C 80.335 222.058,80.008 221.233,79.667 220.500 C 78.046 217.015,77.333 215.347,77.333 215.042 C 77.333 214.860,77.158 214.288,76.945 213.772 C 76.731 213.256,76.530 212.758,76.499 212.667 C 76.468 212.575,76.366 212.275,76.272 212.000 C 76.178 211.725,75.941 211.013,75.746 210.417 L 75.392 209.335 76.779 209.546 C 77.542 209.663,78.324 209.880,78.515 210.030 C 78.707 210.180,79.157 210.293,79.515 210.281 C 79.874 210.269,81.292 210.508,82.667 210.813 C 85.255 211.385,88.523 212.012,89.250 212.075 C 89.479 212.095,89.667 212.199,89.667 212.306 C 89.667 212.412,90.004 212.519,90.417 212.542 C 90.829 212.566,91.542 212.678,92.000 212.791 C 92.458 212.905,93.358 213.091,94.000 213.204 C 94.642 213.318,96.367 213.706,97.833 214.065 C 99.300 214.425,100.800 214.752,101.167 214.793 C 101.998 214.884,106.990 216.004,107.667 216.251 C 108.328 216.493,108.629 216.567,109.922 216.808 C 112.783 217.342,115.605 217.993,116.452 218.315 C 116.968 218.511,117.516 218.593,117.672 218.497 C 117.827 218.401,118.033 218.450,118.130 218.607 C 118.226 218.763,118.649 218.862,119.069 218.827 C 119.489 218.792,120.207 218.902,120.663 219.070 C 121.120 219.239,122.695 219.609,124.163 219.891 C 127.436 220.520,127.833 220.603,127.833 220.662 C 127.833 220.688,128.358 220.780,129.000 220.867 C 129.642 220.953,130.467 221.065,130.833 221.116 C 131.200 221.167,131.800 221.298,132.167 221.408 C 132.533 221.518,133.411 221.706,134.117 221.826 L 135.400 222.043 134.450 220.771 C 133.927 220.072,133.350 219.332,133.167 219.128 C 131.853 217.661,131.413 217.031,131.583 216.862 C 131.690 216.755,131.603 216.667,131.389 216.667 C 131.175 216.667,131.000 216.442,131.000 216.167 C 131.000 215.892,130.857 215.667,130.682 215.667 C 130.508 215.667,130.115 215.142,129.811 214.500 C 129.507 213.858,129.120 213.333,128.952 213.333 C 128.783 213.333,128.550 213.071,128.433 212.750 C 128.317 212.429,127.796 211.540,127.277 210.773 C 126.758 210.007,126.333 209.242,126.333 209.074 C 126.333 208.611,125.334 206.706,124.973 206.484 C 124.799 206.376,124.742 206.148,124.848 205.977 C 124.953 205.806,124.880 205.667,124.686 205.667 C 124.492 205.667,124.333 205.482,124.333 205.255 C 124.333 205.029,123.960 204.092,123.504 203.172 C 122.475 201.096,121.021 197.434,120.800 196.365 C 120.709 195.924,120.481 195.275,120.292 194.923 C 119.844 194.086,119.118 191.442,118.496 188.384 C 118.223 187.036,117.936 185.832,117.859 185.708 C 117.491 185.113,116.566 175.889,116.584 173.000 C 116.593 171.643,117.028 164.612,117.203 163.000 C 117.312 161.992,117.424 160.829,117.451 160.417 C 117.478 160.004,117.575 159.666,117.667 159.665 C 117.758 159.664,117.873 159.027,117.922 158.248 C 117.971 157.470,118.233 155.858,118.505 154.667 C 118.776 153.475,119.075 152.125,119.170 151.667 C 119.627 149.443,120.469 146.466,120.719 146.183 C 120.874 146.009,121.000 145.402,121.000 144.833 C 121.000 144.265,121.180 143.620,121.400 143.400 C 121.620 143.180,121.690 143.000,121.555 143.000 C 121.420 143.000,121.478 142.685,121.684 142.301 C 121.890 141.916,122.126 141.059,122.208 140.396 C 122.290 139.734,122.473 139.111,122.615 139.012 C 122.756 138.914,123.075 137.971,123.323 136.917 C 123.570 135.862,123.915 135.000,124.089 135.000 C 124.263 135.000,124.325 134.794,124.229 134.541 C 124.132 134.289,124.266 133.672,124.526 133.170 C 124.787 132.668,125.000 132.117,125.000 131.946 C 125.000 131.775,125.300 131.014,125.667 130.255 C 126.033 129.496,126.333 128.601,126.333 128.266 C 126.333 127.931,126.466 127.397,126.628 127.079 C 127.380 125.600,127.826 124.552,127.849 124.209 C 127.863 124.002,128.149 123.233,128.485 122.500 C 128.821 121.767,129.100 120.979,129.104 120.750 C 129.108 120.521,129.245 120.333,129.409 120.333 C 129.572 120.333,129.632 120.214,129.542 120.069 C 129.452 119.923,129.669 119.157,130.023 118.366 C 130.377 117.574,130.667 116.803,130.667 116.652 C 130.667 116.501,130.840 115.954,131.051 115.438 C 131.438 114.495,131.474 114.387,131.813 113.167 C 132.280 111.484,134.099 106.463,134.357 106.146 C 134.515 105.951,134.713 105.243,134.796 104.573 C 134.879 103.904,135.048 103.191,135.172 102.991 C 135.296 102.790,135.472 102.147,135.564 101.563 C 135.655 100.978,135.864 100.336,136.028 100.136 C 136.193 99.936,136.239 99.683,136.130 99.574 C 136.021 99.466,136.198 98.579,136.524 97.605 C 136.849 96.631,137.153 95.383,137.199 94.833 C 137.245 94.283,137.498 92.708,137.762 91.333 C 138.177 89.167,138.303 87.649,138.398 83.667 C 138.421 82.709,138.077 79.052,137.802 77.333 C 137.700 76.692,137.607 75.942,137.596 75.667 C 137.585 75.392,137.450 75.005,137.295 74.808 C 137.141 74.611,136.921 73.861,136.807 73.141 C 136.693 72.422,136.461 71.573,136.291 71.255 C 135.929 70.578,137.743 70.610,138.426 71.293 C 138.632 71.498,139.059 71.667,139.376 71.667 C 139.693 71.667,140.158 71.872,140.408 72.123 C 140.659 72.374,141.195 72.684,141.599 72.812 C 142.003 72.940,142.333 73.260,142.333 73.522 C 142.333 73.785,142.478 74.000,142.655 74.000 C 143.000 74.000,145.000 75.850,145.000 76.170 C 145.000 76.275,145.153 76.543,145.340 76.764 C 146.881 78.590,147.333 79.215,147.333 79.525 C 147.333 79.722,147.708 80.236,148.167 80.667 C 148.625 81.097,149.000 81.723,149.000 82.058 C 149.000 82.393,149.150 82.667,149.333 82.667 C 149.517 82.667,149.667 82.817,149.667 83.002 C 149.667 83.186,150.055 84.123,150.530 85.085 C 151.526 87.102,153.047 90.972,153.085 91.583 C 153.099 91.813,153.245 92.000,153.409 92.000 C 153.572 92.000,153.609 92.157,153.491 92.348 C 153.373 92.539,153.457 92.914,153.679 93.181 C 153.900 93.448,153.989 93.667,153.877 93.667 C 153.764 93.667,153.894 94.229,154.165 94.917 C 154.436 95.604,154.724 96.542,154.804 97.000 C 154.885 97.458,154.973 97.833,155.001 97.833 C 155.057 97.833,155.183 98.372,155.466 99.833 C 155.573 100.383,155.752 101.208,155.865 101.667 C 155.977 102.125,156.086 102.763,156.106 103.083 C 156.126 103.404,156.270 103.667,156.424 103.667 C 156.579 103.667,156.627 103.795,156.529 103.953 C 156.432 104.110,156.502 104.747,156.684 105.369 C 156.866 105.991,157.101 107.250,157.206 108.167 C 157.508 110.798,157.608 111.500,157.680 111.500 C 157.718 111.500,157.783 112.100,157.826 112.833 C 157.869 113.567,158.019 114.992,158.158 116.000 C 158.385 117.636,158.513 119.529,158.752 124.734 L 158.824 126.302 159.517 125.651 C 159.898 125.293,160.558 124.362,160.985 123.583 C 162.555 120.713,163.846 118.126,164.312 116.912 C 164.576 116.227,164.938 115.667,165.118 115.667 C 165.297 115.667,165.346 115.568,165.225 115.447 C 165.104 115.327,165.135 115.064,165.293 114.864 C 165.620 114.450,166.364 112.253,166.264 112.000 C 166.227 111.908,166.474 111.308,166.813 110.667 C 167.856 108.689,167.947 108.455,168.187 107.124 C 168.315 106.414,168.538 105.683,168.682 105.500 C 168.826 105.317,168.938 105.047,168.932 104.902 C 168.926 104.756,169.147 104.006,169.422 103.235 C 169.890 101.927,171.130 96.796,171.028 96.592 C 171.002 96.541,171.204 95.762,171.475 94.860 C 171.747 93.958,171.899 93.105,171.812 92.966 C 171.726 92.827,171.778 92.637,171.928 92.544 C 172.078 92.452,172.236 91.804,172.280 91.105 C 172.361 89.800,172.563 88.500,172.684 88.500 C 172.721 88.500,172.786 88.196,172.827 87.825 C 172.868 87.454,173.024 86.404,173.174 85.492 C 173.323 84.580,173.481 83.383,173.526 82.833 C 173.570 82.283,173.689 81.308,173.792 80.667 C 173.983 79.464,174.177 77.552,174.516 73.500 C 174.624 72.217,174.764 68.837,174.827 65.989 C 174.935 61.168,175.019 60.145,175.524 57.500 C 175.629 56.950,175.771 56.200,175.840 55.833 C 176.367 53.007,177.037 50.586,177.433 50.075 C 177.614 49.842,177.678 49.567,177.576 49.464 C 177.473 49.362,177.744 48.513,178.177 47.579 C 178.610 46.644,178.889 45.756,178.796 45.606 C 178.703 45.456,178.786 45.333,178.980 45.333 C 179.174 45.333,179.333 45.033,179.333 44.667 C 179.333 44.300,179.483 44.000,179.667 44.000 C 179.850 44.000,180.000 43.777,180.000 43.505 C 180.000 43.009,181.971 38.981,182.367 38.667 C 182.482 38.575,182.903 37.857,183.302 37.071 C 183.989 35.715,184.773 34.645,186.083 33.276 C 186.404 32.941,186.584 32.667,186.483 32.667 C 185.707 32.667,192.352 27.222,193.583 26.849 C 193.996 26.724,194.333 26.491,194.333 26.332 C 194.333 26.172,194.596 26.045,194.917 26.049 C 195.237 26.054,196.175 25.837,197.000 25.568 C 198.875 24.958,198.827 24.845,197.696 27.187 M289.667 292.833 L 289.667 309.667 197.000 309.667 L 104.333 309.667 104.333 293.056 C 104.333 283.919,104.433 276.344,104.556 276.222 C 104.678 276.100,146.378 276.000,197.222 276.000 L 289.667 276.000 289.667 292.833 M253.139 325.583 C 253.240 325.904,253.245 326.591,253.150 327.110 C 253.055 327.629,252.911 328.679,252.831 329.444 C 252.560 332.009,252.415 332.823,251.840 335.000 C 251.525 336.192,251.211 337.456,251.141 337.809 C 251.072 338.162,250.900 338.537,250.758 338.642 C 250.616 338.747,250.475 338.983,250.444 339.167 C 250.299 340.041,250.150 340.514,249.973 340.667 C 249.867 340.758,249.353 341.733,248.830 342.833 C 248.047 344.482,246.321 347.309,244.500 349.929 C 243.690 351.094,237.661 357.333,237.344 357.333 C 237.209 357.333,236.720 357.671,236.258 358.083 C 232.611 361.345,226.530 364.902,221.333 366.814 C 219.958 367.320,218.573 367.869,218.255 368.034 C 217.936 368.199,217.308 368.333,216.858 368.333 C 216.408 368.333,215.945 368.486,215.830 368.672 C 215.715 368.858,215.474 368.921,215.296 368.810 C 215.117 368.700,214.790 368.757,214.569 368.937 C 214.348 369.117,213.642 369.344,213.000 369.443 C 212.358 369.541,211.257 369.792,210.552 370.002 C 209.847 370.211,209.186 370.297,209.083 370.194 C 208.979 370.090,208.723 370.148,208.513 370.323 C 207.688 371.007,190.533 371.592,190.135 370.949 C 190.038 370.792,189.528 370.740,189.000 370.833 C 188.472 370.926,187.946 370.849,187.831 370.662 C 187.715 370.475,187.497 370.399,187.345 370.493 C 187.194 370.586,186.342 370.526,185.452 370.358 C 184.562 370.190,183.178 369.956,182.377 369.838 C 181.576 369.719,180.676 369.505,180.377 369.361 C 179.554 368.965,175.574 367.634,173.833 367.173 C 173.283 367.027,172.533 366.748,172.167 366.554 C 171.800 366.359,171.275 366.160,171.000 366.112 C 170.193 365.970,164.235 362.712,163.943 362.253 C 163.797 362.022,163.670 361.983,163.661 362.167 C 163.653 362.350,163.425 362.209,163.156 361.853 C 162.887 361.497,162.667 361.327,162.667 361.476 C 162.667 361.624,162.152 361.353,161.522 360.873 C 160.893 360.393,160.226 360.000,160.041 360.000 C 159.856 360.000,159.495 359.701,159.240 359.336 C 158.984 358.971,158.168 358.233,157.426 357.696 C 155.965 356.637,150.667 351.425,150.667 351.046 C 150.667 350.918,150.367 350.598,150.000 350.333 C 149.633 350.069,149.333 349.598,149.333 349.288 C 149.333 348.977,149.221 348.672,149.083 348.611 C 148.771 348.472,147.000 346.118,147.000 345.842 C 147.000 345.730,146.723 345.341,146.384 344.977 C 146.045 344.614,145.571 343.720,145.330 342.991 C 145.090 342.263,144.758 341.667,144.594 341.667 C 144.429 341.667,144.380 341.528,144.484 341.359 C 144.589 341.190,144.377 340.546,144.013 339.929 C 143.649 339.312,143.294 338.513,143.225 338.154 C 143.155 337.794,142.946 337.125,142.760 336.667 C 142.573 336.208,142.492 335.646,142.579 335.417 C 142.667 335.188,142.597 335.000,142.425 335.000 C 142.252 335.000,142.098 334.813,142.081 334.583 C 142.038 333.994,141.736 332.316,141.494 331.333 C 141.234 330.273,141.061 325.967,141.257 325.417 C 141.526 324.657,252.899 324.823,253.139 325.583 " stroke="none" fill="#e8542c" fill-rule="evenodd"></path></g></svg>